<svg xmlns="http://www.w3.org/2000/svg" width="25.687" height="24.84" viewBox="0 0 25.687 24.84">
  <defs>
    <style>
      .cls-1 {
        fill: #fff;
        fill-rule: evenodd;
      }
    </style>
  </defs>
  <path id="Forma_1" data-name="Forma 1" class="cls-1" d="M244.972,1041.35a0.587,0.587,0,0,0-.425-0.4l-0.635-.15a12.392,12.392,0,1,0-5.719,8.56,0.586,0.586,0,0,0-.613-1,11.117,11.117,0,0,1-8.475,1.37,11.238,11.238,0,0,1-3.3-20.49,11.222,11.222,0,0,1,16.865,11.88,0.588,0.588,0,0,0,.436.69l0.194,0.04-1.846,1.96-0.772-2.58,0.185,0.05a0.587,0.587,0,0,0,.706-0.46,10.075,10.075,0,1,0-4.583,6.58,0.586,0.586,0,0,0-.613-1,8.94,8.94,0,1,1,4.155-6.41l-0.564-.13a0.587,0.587,0,0,0-.694.74l1.352,4.52a0.582,0.582,0,0,0,.984.23l3.232-3.43A0.589,0.589,0,0,0,244.972,1041.35Zm-10.1,1.74a0.585,0.585,0,0,0,.825,0,0.589,0.589,0,0,0,0-.83l-2.536-2.54a1.685,1.685,0,0,0,0-1.39l1.858-1.86a0.589,0.589,0,0,0,0-.83,0.581,0.581,0,0,0-.826,0l-1.858,1.86a1.675,1.675,0,0,0-1.875,2.71,1.672,1.672,0,0,0,1.875.34Zm-3.587-3.71a0.5,0.5,0,1,1,.712,0A0.5,0.5,0,0,1,231.281,1039.38Zm-0.228,5.47v1.52a0.584,0.584,0,0,0,1.167,0v-1.52A0.584,0.584,0,0,0,231.053,1044.85Zm1.167-12.11v-1.52a0.584,0.584,0,1,0-1.167,0v1.52A0.584,0.584,0,0,0,232.22,1032.74Zm2.694,12.91a0.6,0.6,0,0,0,.505.29,0.619,0.619,0,0,0,.292-0.08,0.586,0.586,0,0,0,.213-0.8l-0.183-.32a0.585,0.585,0,0,0-1.011.59Zm-6.37-13.39-0.184-.32a0.582,0.582,0,1,0-1.01.58l0.183,0.32a0.578,0.578,0,0,0,.506.29,0.6,0.6,0,0,0,.291-0.07A0.588,0.588,0,0,0,228.544,1032.26Zm9.935,9.82-0.318-.19a0.586,0.586,0,0,0-.8.22,0.577,0.577,0,0,0,.214.79l0.318,0.19a0.616,0.616,0,0,0,.291.08,0.585,0.585,0,0,0,.506-0.3A0.575,0.575,0,0,0,238.479,1042.08Zm-13.366-6.39a0.519,0.519,0,0,0,.291.08,0.575,0.575,0,0,0,.506-0.29,0.587,0.587,0,0,0-.214-0.8l-0.318-.18a0.583,0.583,0,1,0-.583,1.01Zm14.671,3.1a0.582,0.582,0,0,0-.583-0.58h-1.518a0.585,0.585,0,0,0,0,1.17H239.2A0.584,0.584,0,0,0,239.784,1038.79Zm-13.61,0a0.582,0.582,0,0,0-.583-0.58h-1.518a0.585,0.585,0,0,0,0,1.17h1.518A0.584,0.584,0,0,0,226.174,1038.79Zm11.7-3.02a0.519,0.519,0,0,0,.291-0.08l0.318-.18a0.583,0.583,0,1,0-.583-1.01l-0.318.18a0.587,0.587,0,0,0-.214.8A0.575,0.575,0,0,0,237.87,1035.77Zm-12.757,6.12-0.318.19a0.575,0.575,0,0,0-.214.79,0.585,0.585,0,0,0,.506.3,0.616,0.616,0,0,0,.291-0.08l0.318-.19a0.577,0.577,0,0,0,.214-0.79A0.586,0.586,0,0,0,225.113,1041.89Zm10.6-10.17a0.587,0.587,0,0,0-.8.22l-0.183.32a0.589,0.589,0,0,0,.213.8,0.607,0.607,0,0,0,.292.07,0.578,0.578,0,0,0,.506-0.29l0.183-.32A0.589,0.589,0,0,0,235.711,1031.72Zm-8.178,13.02-0.183.32a0.586,0.586,0,0,0,.213.8,0.619,0.619,0,0,0,.292.08,0.6,0.6,0,0,0,.505-0.29l0.184-.32A0.585,0.585,0,0,0,227.533,1044.74Z" transform="translate(-219.313 -1026.38)"/>
</svg>
