<svg xmlns="http://www.w3.org/2000/svg" width="25.656" height="25.46" viewBox="0 0 25.656 25.46">
  <defs>
    <style>
      .cls-1 {
        fill: #fff;
        fill-rule: evenodd;
      }
    </style>
  </defs>
  <path id="Forma_1" data-name="Forma 1" class="cls-1" d="M97.814,1029.5a0.652,0.652,0,0,0-.6-0.4H95.151v-2.07a0.652,0.652,0,0,0-.4-0.6,0.641,0.641,0,0,0-.707.14l-2.122,2.13a12.509,12.509,0,0,0-7.1-2.2,12.679,12.679,0,1,0,10.676,5.89l2.178-2.18A0.656,0.656,0,0,0,97.814,1029.5Zm-3.96-.02-2.092,2.09v-0.87l2.092-2.1v0.88Zm-5.574,9.7a3.456,3.456,0,1,1-1.358-2.76l-1.134,1.14a1.885,1.885,0,1,0,.913,1.62,1.918,1.918,0,0,0-.1-0.6l1.183-1.18A3.451,3.451,0,0,1,88.279,1039.18Zm-0.434-3.68a4.8,4.8,0,1,0,.879.96l2.007-2.01a7.517,7.517,0,1,1-.894-0.95Zm8.323,3.68a11.349,11.349,0,1,1-11.349-11.38,11.244,11.244,0,0,1,6.166,1.84l-0.331.33a0.635,0.635,0,0,0-.19.46v1.9a8.867,8.867,0,1,0,1.4,1.46h1.956a0.616,0.616,0,0,0,.459-0.19l0.268-.26A11.276,11.276,0,0,1,96.168,1039.18Zm-2.613-6.69H92.679l2.093-2.09h0.877Z" transform="translate(-72.188 -1026.38)"/>
</svg>
