<svg xmlns="http://www.w3.org/2000/svg" width="36" height="25.28" viewBox="0 0 36 25.28">
  <defs>
    <style>
      .cls-1 {
        fill: #fff;
        fill-rule: evenodd;
      }
    </style>
  </defs>
  <path id="Forma_1" data-name="Forma 1" class="cls-1" d="M47,3367.41v-0.14a2.324,2.324,0,0,0-.66-1.56l-0.048-.04a0.048,0.048,0,0,1-.048-0.05c-0.1-.1-0.188-0.14-0.284-0.24-0.048,0-.048-0.05-0.1-0.05-0.1-.05-0.236-0.09-0.333-0.14-0.048,0-.048-0.05-0.1-0.05a1.61,1.61,0,0,0-.424-0.09h-0.1c-0.14,0-.332-0.05-0.52-0.05H13.554a2.207,2.207,0,0,0-.569.05,0.16,0.16,0,0,0-.14.05,2.372,2.372,0,0,0-.376.09c-0.048,0-.048.05-0.1,0.05-0.1.05-.236,0.1-0.332,0.14l-0.048.05c-0.1.05-.188,0.14-0.284,0.19-0.048.05-.1,0.09-0.14,0.14a2.2,2.2,0,0,0-.568,1.28v21.22a2.288,2.288,0,0,0,.9,1.56,2.713,2.713,0,0,0,1.557.47H44.538a1.888,1.888,0,0,0,.472-0.04h0.1c0.14-.05.284-0.05,0.376-0.1H45.53A2.187,2.187,0,0,0,47,3388.02v-20.56S47,3367.46,47,3367.41Zm-3.022-.66L29.1,3381.26l-3.4-3.31h0l-11.669-11.2H43.978ZM12.754,3387.6v-19.67l11,10.59Zm15.872,0.99H14.311l10.724-8.8,3.447,3.36a1.022,1.022,0,0,0,.424.24h0.289a0.8,0.8,0,0,0,.424-0.24l3.258-3.17,10.768,8.61H28.626Zm16.625-.95L34.2,3378.71l11.052-10.78v19.71Z" transform="translate(-11 -3365)"/>
</svg>
