<svg xmlns="http://www.w3.org/2000/svg" width="21" height="36" viewBox="0 0 21 36">
  <defs>
    <style>
      .cls-1 {
        fill: #fff;
        fill-rule: evenodd;
      }
    </style>
  </defs>
  <path id="Forma_1" data-name="Forma 1" class="cls-1" d="M38.141,3226H20.918A1.934,1.934,0,0,0,19,3227.92v32.16a1.934,1.934,0,0,0,1.918,1.92H38.1a1.934,1.934,0,0,0,1.918-1.92v-32.16A1.845,1.845,0,0,0,38.141,3226Zm-17.223,1.61H38.1a0.3,0.3,0,0,1,.307.31v2.71H20.615v-2.71A0.3,0.3,0,0,1,20.918,3227.61Zm17.486,4.63v22.49H20.744v-22.49H38.4Zm-0.263,28.15H20.918a0.3,0.3,0,0,1-.307-0.3v-3.71H38.444v3.71A0.319,0.319,0,0,1,38.141,3260.39Zm-7.8-1.96a0.872,0.872,0,1,1-.872-0.87A0.872,0.872,0,0,1,30.337,3258.43Z" transform="translate(-19 -3226)"/>
</svg>
