<svg xmlns="http://www.w3.org/2000/svg" width="35.531" height="36" viewBox="0 0 35.531 36">
  <defs>
    <style>
      .cls-1 {
        fill: #fff;
        fill-rule: evenodd;
      }
    </style>
  </defs>
  <path id="Forma_1" data-name="Forma 1" class="cls-1" d="M31.383,3327.47a14.371,14.371,0,0,1-2.449.21,14.529,14.529,0,0,1-14.254-17.21,1.25,1.25,0,0,0-.136-0.84,8.162,8.162,0,0,1,7.144-12.1,1.265,1.265,0,1,0,0-2.53,10.695,10.695,0,0,0-9.571,15.45,17.054,17.054,0,0,0,16.818,19.76,17.294,17.294,0,0,0,2.874-.24A1.268,1.268,0,0,0,31.383,3327.47ZM45.7,3316.18a17.373,17.373,0,0,0,.266-3.01,17.062,17.062,0,0,0-17.034-17.05,16.721,16.721,0,0,0-2.645.21,1.265,1.265,0,0,0,.39,2.5,14.17,14.17,0,0,1,2.256-.17,14.524,14.524,0,0,1,14.5,14.51,14.775,14.775,0,0,1-.292,2.91,1.288,1.288,0,0,0,.093.79,8.075,8.075,0,0,1,.76,3.44,8.167,8.167,0,0,1-8.156,8.16,1.265,1.265,0,1,0,0,2.53,10.7,10.7,0,0,0,10.686-10.69A10.585,10.585,0,0,0,45.7,3316.18Zm-10.315-.13a3.913,3.913,0,0,0-.44-1.93,3.688,3.688,0,0,0-1.226-1.29,8.037,8.037,0,0,0-1.908-.87,25.6,25.6,0,0,0-2.5-.66c-0.733-.17-1.269-0.3-1.589-0.39a4.982,4.982,0,0,1-.95-0.37,2.134,2.134,0,0,1-.74-0.56,1.192,1.192,0,0,1-.268-0.78,1.48,1.48,0,0,1,.789-1.25,3.774,3.774,0,0,1,2.076-.51,3.34,3.34,0,0,1,2.015.47,4.025,4.025,0,0,1,1.074,1.33,3.467,3.467,0,0,0,.64.85,1.307,1.307,0,0,0,.862.27,1.464,1.464,0,0,0,1.457-1.41,2.556,2.556,0,0,0-.335-1.22,3.96,3.96,0,0,0-1.061-1.19,5.693,5.693,0,0,0-1.825-.91,8.782,8.782,0,0,0-2.608-.34,9.321,9.321,0,0,0-3.284.52,4.6,4.6,0,0,0-2.133,1.47,3.543,3.543,0,0,0-.737,2.2,3.429,3.429,0,0,0,.7,2.18,4.788,4.788,0,0,0,1.889,1.38,17.2,17.2,0,0,0,2.956.88c0.869,0.18,1.578.36,2.109,0.52a3.4,3.4,0,0,1,1.287.72,1.594,1.594,0,0,1,.5,1.21,1.854,1.854,0,0,1-.924,1.58,4.182,4.182,0,0,1-2.4.63,4.053,4.053,0,0,1-1.734-.32,2.64,2.64,0,0,1-1.024-.79,5.95,5.95,0,0,1-.677-1.2,2.378,2.378,0,0,0-.619-0.91,1.354,1.354,0,0,0-.888-0.31,1.46,1.46,0,0,0-1.065.4,1.238,1.238,0,0,0-.419.94,3.48,3.48,0,0,0,.7,1.96,5.159,5.159,0,0,0,1.816,1.61,8.451,8.451,0,0,0,4,.84,9.059,9.059,0,0,0,3.5-.62,4.954,4.954,0,0,0,2.238-1.69A4.155,4.155,0,0,0,35.387,3316.05Z" transform="translate(-11 -3295)"/>
</svg>
