<svg xmlns="http://www.w3.org/2000/svg" width="21.625" height="25.781" viewBox="0 0 21.625 25.781">
  <defs>
    <style>
      .cls-1 {
        fill: #fff;
        fill-rule: evenodd;
      }
    </style>
  </defs>
  <path id="Forma_1" data-name="Forma 1" class="cls-1" d="M90.129,900.381a0.581,0.581,0,0,1,.066-0.818l0.936-.8a0.58,0.58,0,0,1,.751.884l-0.936.8A0.577,0.577,0,0,1,90.129,900.381Zm1.684,2.457A0.582,0.582,0,0,0,91.805,904l1.228,0.01h0a0.582,0.582,0,0,0,0-1.164Zm-0.734-1.086a0.579,0.579,0,0,0,.742.347l2.035-.742a0.581,0.581,0,0,0-.4-1.092l-2.035.743A0.581,0.581,0,0,0,91.079,901.752Zm-4.156,18.376a3.44,3.44,0,0,1-.4,1.021c-0.556.966-1.229,1.387-1.767,1.112l-0.85-.38a4.9,4.9,0,0,1-1.051.608l-0.1.926c-0.029.606-.73,0.98-1.844,0.98s-1.813-.373-1.844-0.978l-0.1-.928a4.9,4.9,0,0,1-1.051-.608l-0.848.379c-0.538.279-1.212-.143-1.769-1.111s-0.584-1.761-.076-2.09l0.75-.544a5.038,5.038,0,0,1,0-1.223l-0.75-.544c-0.506-.329-0.478-1.125.078-2.09s1.231-1.389,1.769-1.111l0.839,0.376a4.973,4.973,0,0,1,1.061-.616l0.095-.917c0.031-.6.733-0.977,1.844-0.977s1.816,0.374,1.844.98l0.095,0.914a4.937,4.937,0,0,1,1.061.616l0.841-.376c0.538-.276,1.212.146,1.767,1.111a3.442,3.442,0,0,1,.4,1.022,0.943,0.943,0,0,1-.327,1.069l-0.748.543a5.052,5.052,0,0,1,0,1.223l0.75,0.544A0.944,0.944,0,0,1,86.923,920.128Zm-2.044-3.567,0.907-.659a2.654,2.654,0,0,0-.708-1.23l-1.021.458a0.58,0.58,0,0,1-.62-0.1,3.783,3.783,0,0,0-1.311-.761,0.58,0.58,0,0,1-.392-0.49l-0.115-1.112a2.635,2.635,0,0,0-1.417,0l-0.115,1.112a0.58,0.58,0,0,1-.392.49,3.8,3.8,0,0,0-1.311.761,0.578,0.578,0,0,1-.62.1l-1.021-.458a2.321,2.321,0,0,0-.438.567,2.289,2.289,0,0,0-.27.663l0.907,0.659a0.581,0.581,0,0,1,.228.584,3.868,3.868,0,0,0,0,1.515,0.581,0.581,0,0,1-.228.585l-0.909.66a2.64,2.64,0,0,0,.708,1.23l1.029-.46a0.578,0.578,0,0,1,.619.094,3.782,3.782,0,0,0,1.3.755,0.579,0.579,0,0,1,.392.49l0.116,1.123a2.635,2.635,0,0,0,1.417,0l0.116-1.123a0.58,0.58,0,0,1,.392-0.49,3.8,3.8,0,0,0,1.3-.755,0.578,0.578,0,0,1,.619-0.094l1.028,0.46a2.268,2.268,0,0,0,.438-0.566,2.294,2.294,0,0,0,.27-0.663l-0.909-.661a0.581,0.581,0,0,1-.228-0.585,3.876,3.876,0,0,0,0-1.515A0.581,0.581,0,0,1,84.879,916.561ZM83.115,917.9a2.2,2.2,0,1,1-2.2-2.209A2.209,2.209,0,0,1,83.115,917.9Zm-1.159,0a1.045,1.045,0,1,0-1.045,1.048A1.048,1.048,0,0,0,81.956,917.9Zm14.43,3.529-1.859-5.091a0.6,0.6,0,0,0-.032-0.071,1.272,1.272,0,0,0-1.017-.76c-0.282-.036-0.559-0.051-0.827-0.066-0.132-.007-0.263-0.014-0.4-0.024a6.712,6.712,0,0,1-1.2-.185,2.768,2.768,0,0,1-1.545-.875A11.32,11.32,0,0,1,87.924,910a2.779,2.779,0,0,1,.616-1.668,6.548,6.548,0,0,1,.794-0.916c0.094-.092.189-0.182,0.284-0.272,0.174-.165.353-0.335,0.526-0.517a1.28,1.28,0,0,0,.331-1.384l-1.859-5.091a1.283,1.283,0,0,0-1.645-.765l-1.285.471a4.148,4.148,0,0,0-.918.433c-2.317,1.418-3.587,4.168-3.577,7.743a16.6,16.6,0,0,0,.129,1.984,0.579,0.579,0,1,0,1.15-.143,15.435,15.435,0,0,1-.12-1.844c-0.009-3.154,1.064-5.551,3.022-6.748a2.986,2.986,0,0,1,.711-0.334l1.287-.472a0.124,0.124,0,0,1,.159.074l1.859,5.091a0.124,0.124,0,0,1-.034.136c-0.013.011-.025,0.024-0.037,0.036-0.154.164-.319,0.32-0.493,0.485-0.1.1-.2,0.19-0.3,0.287a7.8,7.8,0,0,0-.93,1.076,3.907,3.907,0,0,0-.828,2.352,12.076,12.076,0,0,0,1.854,5.078,3.891,3.891,0,0,0,2.148,1.261,7.9,7.9,0,0,0,1.4.22c0.139,0.01.277,0.017,0.416,0.025,0.26,0.015.506,0.028,0.75,0.059a0.12,0.12,0,0,1,.1.079c0.007,0.018.014,0.035,0.022,0.052l1.84,5.037a0.125,0.125,0,0,1-.074.16l-1.169.429a3.672,3.672,0,0,1-1.045.272,6.3,6.3,0,0,1-4.673-1.462,0.58,0.58,0,0,0-.7.923,7.775,7.775,0,0,0,4.72,1.741,6.66,6.66,0,0,0,.8-0.049,4.775,4.775,0,0,0,1.3-.335l1.169-.429A1.288,1.288,0,0,0,96.386,921.427Z" transform="translate(-74.844 -898.625)"/>
</svg>
