<svg xmlns="http://www.w3.org/2000/svg" width="23.594" height="25.781" viewBox="0 0 23.594 25.781">
  <defs>
    <style>
      .cls-1 {
        fill: #fff;
        fill-rule: evenodd;
      }
    </style>
  </defs>
  <path id="Forma_1" data-name="Forma 1" class="cls-1" d="M228.866,910.883a3.475,3.475,0,1,0,3.466,3.475A3.474,3.474,0,0,0,228.866,910.883Zm0,5.679a2.2,2.2,0,1,1,2.2-2.2A2.2,2.2,0,0,1,228.866,916.562ZM239.9,898.327H232.09a2.866,2.866,0,0,0-2.858,2.867v3.442h-1.66a0.634,0.634,0,0,0-.634.635v1.11a8.019,8.019,0,0,0-2.332.97l-0.783-.785a0.632,0.632,0,0,0-.9,0L221.1,908.4a0.636,0.636,0,0,0,0,.9l0.783,0.785a8.091,8.091,0,0,0-.967,2.339h-1.106a0.635,0.635,0,0,0-.634.636v2.6a0.635,0.635,0,0,0,.634.636h1.106a8.1,8.1,0,0,0,.967,2.338l-0.783.785a0.637,0.637,0,0,0,0,.9l1.83,1.836a0.634,0.634,0,0,0,.9,0l0.783-.785a8.044,8.044,0,0,0,2.332.969v1.11a0.634,0.634,0,0,0,.634.635h2.589a0.634,0.634,0,0,0,.634-0.635v-1.11a8.055,8.055,0,0,0,2.332-.969l0.783,0.785a0.633,0.633,0,0,0,.9,0l1.831-1.836a0.637,0.637,0,0,0,0-.9l-0.783-.785a8.071,8.071,0,0,0,.966-2.338h1.107a0.635,0.635,0,0,0,.634-0.636v-2.6a0.635,0.635,0,0,0-.634-0.636H236.82a8.081,8.081,0,0,0-.263-0.87l1.2-.868H239.9a2.865,2.865,0,0,0,2.857-2.867v-6.625A2.865,2.865,0,0,0,239.9,898.327Zm-4.224,14.841a0.636,0.636,0,0,0,.625.528h0.989v1.324H236.3a0.636,0.636,0,0,0-.625.528,6.865,6.865,0,0,1-1.157,2.8,0.638,0.638,0,0,0,.07.816l0.7,0.7-0.934.937-0.7-.7a0.632,0.632,0,0,0-.813-0.07,6.81,6.81,0,0,1-2.792,1.16,0.636,0.636,0,0,0-.526.627v0.992h-1.321v-0.992a0.636,0.636,0,0,0-.526-0.627,6.8,6.8,0,0,1-2.792-1.16,0.633,0.633,0,0,0-.814.07l-0.7.7-0.934-.937,0.7-.7a0.637,0.637,0,0,0,.069-0.816,6.865,6.865,0,0,1-1.157-2.8,0.634,0.634,0,0,0-.624-0.528H220.44V913.7h0.989a0.634,0.634,0,0,0,.624-0.528,6.867,6.867,0,0,1,1.158-2.8,0.638,0.638,0,0,0-.07-0.816l-0.7-.7,0.934-.937,0.7,0.7a0.633,0.633,0,0,0,.814.07,6.81,6.81,0,0,1,2.792-1.16,0.636,0.636,0,0,0,.526-0.627v-0.992h1.026v1.912a2.866,2.866,0,0,0,2.858,2.867h0.638v2.392a0.636,0.636,0,0,0,.345.566,0.629,0.629,0,0,0,.289.07,0.635,0.635,0,0,0,.37-0.12l1.749-1.263A6.885,6.885,0,0,1,235.679,913.168Zm5.813-5.349a1.594,1.594,0,0,1-1.589,1.6h-2.348a0.634,0.634,0,0,0-.371.12l-3.188,2.3V910.05a0.635,0.635,0,0,0-.634-0.636H232.09a1.594,1.594,0,0,1-1.59-1.6v-6.625a1.6,1.6,0,0,1,1.59-1.6H239.9a1.594,1.594,0,0,1,1.589,1.6v6.625Zm-5.566-7.4a2.656,2.656,0,0,0-2.65,2.657,0.634,0.634,0,1,0,1.268,0,1.382,1.382,0,1,1,2.763,0c0,0.765-.986,1.744-1.638,2.392l-0.192.19a0.639,0.639,0,0,0,0,.9,0.634,0.634,0,0,0,.9,0l0.187-.187c0.85-.844,2.014-2,2.014-3.3A2.656,2.656,0,0,0,235.926,900.416Zm-0.183,6.876a0.763,0.763,0,0,0-.761.763A0.76,0.76,0,1,0,235.743,907.292Z" transform="translate(-219.156 -898.313)"/>
</svg>
